<svg xmlns="http://www.w3.org/2000/svg" viewBox="0 0 427.01 344.26"><defs><style>.cls-1,.cls-3{stroke:#000;}.cls-1,.cls-2,.cls-3{stroke-miterlimit:10;}.cls-2{fill:#bc0c0c;stroke:#bc0c0c;}.cls-3{fill:#fff;}</style></defs><title>Recurso 4</title><g id="Capa_2" data-name="Capa 2"><g id="Capa_2-2" data-name="Capa 2"><path class="cls-1" d="M.52,201.07c-.47-1,6.15-3.54,12.68-12a60.46,60.46,0,0,0,6.32-11c5-10.36,6.53-18.49,8-25,0,0,5.93-26.21,21-59,7.67-16.68,14.46-31.45,28-45,37.24-37.25,92.81-32.52,98-32,2.08.21,32.57,3.53,58,19,0,0,.69.42,24,15a71.13,71.13,0,0,1-13-25c-2.77-10-1.67-15.49-1-18a27.32,27.32,0,0,1,3-7s4.23,9.39,5,11c6.71,14.05,29.8,22.13,38,25,.59.21-.09,0,23,7,8.24,2.51,12.37,3.77,13,4,7.34,2.67,19.55,7.1,29,17,0,0,2.64,2.76,15,24,0,0,3.61-2.66,5-4,3.48-3.34,3.68-8.54,4-17,.17-4.18,0-10,0-10-3.68-1.27,7.59,2.1,11,4,5.93,3.3,8.66,9.07,11,14,0,0,1.2,2.52,5,15l21-2c6.05-11.11-17.8,33.59-18,34-5.6,11.74-8.4,17.6-11,26a150.2,150.2,0,0,0-6,36s-.34,7.23,1,35l-21-6v-19s-12.57-1.22-17-2c-16.09-2.81-29.39-16.26-35-30a69.14,69.14,0,0,1-4-15c-.67-5.16-1-13-1-13h0c-38.34,33.22-41,35-41,35-28.28,19-57.87,22.18-84,25-18.66,2-33,3.56-51-1-12.33-3.11-34-11-34-11h0l-7,31h0l-15,5h0l-6-56h0a38.31,38.31,0,0,1-8-8s-.48-.67-4-7h0s-5,12.15-10,20c-5.73,9-12.6,14-18,18C19.16,198.11,1.28,202.61.52,201.07Z"/></g><g id="Capa_3" data-name="Capa 3"><path class="cls-2" d="M108.52,320.07c.38.4,1,1,1,1a67.5,67.5,0,0,1-12-13c-3.61-5.42-4.79-10-7-19a116.19,116.19,0,0,1-4-26c-.48-15.42-.8-25.75,6-33,4.21-4.48,9.47-5.65,20-8,2.87-.64,12.81-2.73,36-2,16.12.51,24.35.82,33,4,9.23,3.39,16.67,6.12,21,13,11.81,18.77-8,55-8,55h0s9.82-18.68,6-36a23.38,23.38,0,0,0-5-11c-4.37-5-10.21-6.61-17-8a193.92,193.92,0,0,0-33-4c-19.64-.23-29.65-.22-39,6a30.36,30.36,0,0,0-11,12c-2.7,5.61-2.5,10.48-2,20,.69,12.91,3.17,21.19,7,34C100.52,305.07,103.43,314.78,108.52,320.07Z"/><path class="cls-2" d="M267.52,287.07c-1.51.29-18.57-33.21-4-52,7.37-9.49,19.59-11.08,42-14,14.3-1.86,24.34-1,35,0,27.82,2.5,32.62,8.86,34,11,1.8,2.78,2.22,5.89,3,12,.67,5.21,1.45,14.71-1,32-.46,3.25-3.8,26.09-10,34a104.47,104.47,0,0,1-7,8l-3,3c6.38-10.44,9-16,9-16,4.44-9.4,5.05-17.38,6-30,1.21-15.93-1.06-21.82-2-24a27.72,27.72,0,0,0-7-10c-3.76-3.27-7.8-4.72-13-6a98.65,98.65,0,0,0-26-3c-29.83,1.57-45.56,2.4-54,13C257.13,260.65,268.86,286.81,267.52,287.07Z"/></g><g id="Capa_4" data-name="Capa 4"><ellipse class="cls-1" cx="318.52" cy="277.57" rx="19" ry="20.5"/><ellipse class="cls-1" cx="146.52" cy="277.57" rx="19" ry="20.5"/><path class="cls-2" d="M74.52,243.07a23.61,23.61,0,0,1,4,6c.73,1.75.83,3.52,1,7a63.69,63.69,0,0,1,0,7c-.43,6.47.45,16,1,22,.7,7.53,2.17,23.51,11,36,12.8,18.1,35.67,21.26,41,22,18.81,2.61,46-1.76,61-20,11.54-14,21.93-43.6,31-50a16.8,16.8,0,0,1,8-3,15.56,15.56,0,0,1,8,2,20.71,20.71,0,0,1,7,6c5.41,7.07,7.95,15.41,10,20a81.34,81.34,0,0,0,22,28,72,72,0,0,0,17,10c7.1,3.08,26.82,11.3,50,5,6.2-1.68,16.92-4.59,26-14,11.73-12.15,14-28.19,15-35,.66-4.61,1.11-11.41,2-25,.71-10.68.9-12.52,2-16,1.45-4.53,3.12-7.09,3-12,0-2.48-.16-7-3-9-1.37-1-3-1.11-5-3-.44-.42-2-2-2-2h0c2.52,4.23,2.51,7.12,2,9s-1.5,2.61-3,6a44.45,44.45,0,0,0-2,6c-1.92,7.44-1.11,21.58-1,24,.56,12.08-3,21.59-5,27-2.84,7.64-7.32,19.67-19,27-8.25,5.19-16.18,5.55-26,6-8.46.39-22.95,1.05-38-7a78.44,78.44,0,0,1-27-27c-10.5-17.53-13-23-13-23-2.93-6.44-4-9.92-8-13-5.06-3.87-12.65-5.43-19-3-5,1.91-7.76,5.72-10,9-12.56,18.42-12.59,26.88-21,38a62.6,62.6,0,0,1-22,18c-14,7.09-26.73,7.1-35,7-12.29-.14-26.23-.3-37-10-6.58-5.93-9.1-12.83-11-18-6.45-17.62-5.34-42.22-5-50,.12-2.6.4-6.85-2-11,0,0-.89-1.55-7-8Z"/><ellipse class="cls-3" cx="146.52" cy="284.57" rx="8" ry="10.5"/><ellipse class="cls-3" cx="318.52" cy="284.57" rx="8" ry="10.5"/></g><g id="Capa_5" data-name="Capa 5"><path class="cls-3" d="M350.52,112.07h8v5c9.39-1.94,16.81,4.3,17,10,.15,4.36-3.9,9.2-10,11l11,15h-8l-9-12v9a9.68,9.68,0,0,1-2,6,9.57,9.57,0,0,1-2,2,13.13,13.13,0,0,1-6.81,2.05,9.21,9.21,0,0,1-1.19-.05,26,26,0,0,1-11-3h0l4-6h0a10.32,10.32,0,0,0,7,1,4,4,0,0,0,2-1,5,5,0,0,0,1-2h0v-29C350.53,116.68,350.53,113.92,350.52,112.07Z"/><path class="cls-1" d="M359.52,122.07s5.21-.27,7,2c1.45,1.82.88,5.54-1,7s-6,1-6,1h0v-10Z"/></g></g></svg>